<?xml version="1.0" encoding="UTF-8" standalone="no"?>
<svg
   xmlns:dc="http://purl.org/dc/elements/1.1/"
   xmlns:cc="http://creativecommons.org/ns#"
   xmlns:rdf="http://www.w3.org/1999/02/22-rdf-syntax-ns#"
   xmlns:svg="http://www.w3.org/2000/svg"
   xmlns="http://www.w3.org/2000/svg"
   xmlns:sodipodi="http://sodipodi.sourceforge.net/DTD/sodipodi-0.dtd"
   xmlns:inkscape="http://www.inkscape.org/namespaces/inkscape"
   sodipodi:docname="c.svg"
   inkscape:version="1.0 (4035a4f, 2020-05-01)"
   xml:space="preserve"
   enable-background="new 0 0 1000 1405.488"
   viewBox="0 50 380 312.9545"
   height="420"
   width="380"
   y="0px"
   x="0px"
   id="Layer_1"
   version="1.1"><metadata
     id="metadata187"><rdf:RDF><cc:Work
         rdf:about=""><dc:format>image/svg+xml</dc:format><dc:type
           rdf:resource="http://purl.org/dc/dcmitype/StillImage" /><dc:title></dc:title></cc:Work></rdf:RDF></metadata><defs
     id="defs185" /><sodipodi:namedview
     inkscape:document-rotation="0"
     inkscape:current-layer="Layer_1"
     inkscape:window-maximized="1"
     inkscape:window-y="1103"
     inkscape:window-x="0"
     inkscape:cy="444.93894"
     inkscape:cx="695.53362"
     inkscape:zoom="0.78456046"
     fit-margin-bottom="10"
     fit-margin-right="10"
     fit-margin-left="10"
     fit-margin-top="10"
     showgrid="false"
     id="namedview183"
     inkscape:window-height="1005"
     inkscape:window-width="1680"
     inkscape:pageshadow="2"
     inkscape:pageopacity="0"
     guidetolerance="10"
     gridtolerance="10"
     objecttolerance="10"
     borderopacity="1"
     bordercolor="#666666"
     pagecolor="#ffffff" /><path
     style="fill:#a8b9cc"
     inkscape:connector-curvature="0"
     id="path3"
     d="m 258.00294,162.63865 c 0,0 -5.446,-50.77599 -55.826,-52.18599 -50.38,-1.41 -76.254,38.082 -76.254,94.49899 0,56.417 28.595,101.553 77.614,101.553 49.02,0 54.466,-56.417 54.466,-56.417 l 93.953,5.641 c 0,0 5.532,50.954 -33.784,89.829 -39.317,38.872 -87.575,45.223 -121.276,44.959 -33.701,-0.269 -80.427,0.528 -125.613007,-45.752 -45.186,-46.28 -52.854,-91.239 -52.854,-135.403 0,-44.166 8.569,-102.67299 62.296,-147.039993 36.514007,-30.148 73.529007,-41.256 110.550007,-41.256 154.551,0 164.931,142.543993 164.931,142.543993 z" /></svg>
