<?xml version="1.0" encoding="UTF-8" standalone="no"?>
<svg
   xmlns:dc="http://purl.org/dc/elements/1.1/"
   xmlns:cc="http://creativecommons.org/ns#"
   xmlns:rdf="http://www.w3.org/1999/02/22-rdf-syntax-ns#"
   xmlns:svg="http://www.w3.org/2000/svg"
   xmlns="http://www.w3.org/2000/svg"
   xmlns:xlink="http://www.w3.org/1999/xlink"
   xmlns:sodipodi="http://sodipodi.sourceforge.net/DTD/sodipodi-0.dtd"
   xmlns:inkscape="http://www.inkscape.org/namespaces/inkscape"
   inkscape:version="1.0 (4035a4f, 2020-05-01)"
   height="104.54"
   width="102.29"
   sodipodi:docname="logo-conan.svg"
   xml:space="preserve"
   viewBox="0 0 102.29 104.54"
   y="0"
   x="0"
   id="Layer_1"
   version="1.1"><metadata
     id="metadata872"><rdf:RDF><cc:Work
         rdf:about=""><dc:format>image/svg+xml</dc:format><dc:type
           rdf:resource="http://purl.org/dc/dcmitype/StillImage" /><dc:title></dc:title></cc:Work></rdf:RDF></metadata><sodipodi:namedview
     inkscape:current-layer="Layer_1"
     inkscape:window-maximized="0"
     inkscape:window-y="23"
     inkscape:window-x="70"
     inkscape:cy="52.27"
     inkscape:cx="128.01"
     inkscape:zoom="1.6225045"
     fit-margin-bottom="0"
     fit-margin-right="0"
     fit-margin-left="0"
     fit-margin-top="0"
     showgrid="false"
     id="namedview870"
     inkscape:window-height="894"
     inkscape:window-width="1690"
     inkscape:pageshadow="2"
     inkscape:pageopacity="0"
     guidetolerance="10"
     gridtolerance="10"
     objecttolerance="10"
     borderopacity="1"
     bordercolor="#666666"
     pagecolor="#ffffff" /><style
     id="style833">.st0{fill-rule:evenodd;clip-rule:evenodd;fill:#6699cb}</style><path
     id="path835"
     d="M 51.21,53.02 0.13,23.4 v 47.49 l 51.08,33.65 z"
     class="st0" /><defs
     id="defs838"><path
       d="M 147.49,30.14 198.7,59.75 249.78,32.51 197.39,6.73 Z"
       id="SVGID_1_" /></defs><clipPath
     id="SVGID_2_"><use
       height="100%"
       width="100%"
       y="0"
       x="0"
       id="use840"
       overflow="visible"
       xlink:href="#SVGID_1_" /></clipPath><linearGradient
     y2="29.768999"
     x2="192.625"
     y1="47.660999"
     x1="223.592"
     gradientUnits="userSpaceOnUse"
     id="SVGID_3_"><stop
       id="stop843"
       stop-color="#afd5e6"
       offset="0" /><stop
       id="stop845"
       stop-color="#afd5e6"
       offset="1" /></linearGradient><path
     transform="translate(-147.49,-6.73)"
     style="fill:url(#SVGID_3_)"
     id="path848"
     d="m 147.49,6.73 h 102.3 v 53.01 h -102.3 z"
     fill="url(#SVGID_3_)"
     clip-path="url(#SVGID_2_)" /><path
     id="path850"
     d="M 51.21,53.02 102.29,25.78 V 73.26 L 51.21,104.54 Z"
     fill="#7ba7d3"
     clip-rule="evenodd"
     fill-rule="evenodd" /><path
     id="path852"
     d="m 51.44,12.76 -2.96,0.33 -0.43,0.18 -0.47,0.01 -0.42,0.18 -2.31,0.55 -0.33,0.14 -0.31,0.01 -0.28,0.23 -4.27,1.58 -0.22,0.17 c -1.93,0.75 -3.49,1.8 -5.16,2.66 L 34.09,19 c -1.5,0.84 -2.03,1.28 -3.08,2.32 l -0.25,0.17 -1.06,1.42 -0.21,0.18 -0.35,0.71 -0.19,0.2 c -1.2,2.75 -1.18,3.19 -0.93,6.4 l 0.21,0.32 v 0.33 l 0.15,0.29 0.4,0.99 0.17,0.23 0.18,0.51 0.21,0.18 c 0.61,1.1 1.37,1.97 2.1,2.77 0.41,0.45 2.16,1.87 2.85,2.22 l 0.19,0.21 c 1.4,0.67 2.44,1.51 4.22,2.13 l 0.24,0.16 3.45,1.08 0.39,0.19 c 1.19,0.13 2.44,0.48 3.76,0.65 1.44,0.19 2.2,-0.5 3.4,-1.02 l 0.23,-0.17 h 0.16 l 0.23,-0.17 5.47,-2.52 0.23,-0.17 h 0.16 l 0.23,-0.17 3.15,-1.49 -0.28,-0.12 c -1.85,-0.08 -4.04,0.2 -6.04,0.15 -2.01,-0.05 -3.87,-0.42 -5.71,-0.5 L 47.38,36.29 C 46.05,36.16 44.72,35.6 43.57,35.21 l -0.25,-0.16 c -1.85,-0.66 -3.55,-2.12 -4.35,-3.63 -1.27,-2.4 -0.48,-4.18 0.48,-6.21 l 0.21,-0.18 0.17,-0.33 0.22,-0.18 c 0.99,-1.41 3.43,-3.37 5.83,-4.13 l 0.25,-0.16 2.54,-0.72 0.37,-0.19 0.39,0.02 0.39,-0.19 1.69,-0.14 c 0.41,-0.27 0.62,-0.23 1.2,-0.24 h 3.93 c 0.62,-0.02 1.16,-0.02 1.6,0.23 l 2.29,0.31 0.28,0.22 c 1.39,0.2 2.55,0.97 3.72,1.4 l 0.2,0.19 0.73,0.34 0.19,0.2 c 1.23,0.65 3.41,2.65 3.87,4.24 l 0.16,0.26 c 0.52,1.8 0.39,2.4 -0.01,4.17 l -0.16,0.33 -0.64,1.38 0.96,-0.39 0.21,-0.18 7.56,-3.91 0.21,-0.18 1.81,-0.89 0.21,-0.18 1.81,-0.89 0.21,-0.2 C 81.92,24.83 79.58,22.9 79.08,22.43 L 78.9,22.18 C 78.29,21.66 77.41,20.9 76.69,20.45 l -0.18,-0.22 c -0.72,-0.41 -1.33,-1.05 -2.03,-1.39 l -0.19,-0.2 -1.83,-1.05 -0.19,-0.2 -2.38,-1.24 -0.23,-0.17 -3.07,-1.27 -0.26,-0.16 -1.85,-0.52 -0.29,-0.22 H 63.87 L 63.51,13.65 H 63.17 L 62.85,13.44 C 61.34,13.3 59.68,12.81 57.99,12.65 55.96,12.47 53.98,12.7 52.16,12.54 Z"
     class="st0" /><path
     id="path854"
     d="m 77.65,38.92 1.91,-1.02 v 49.28 l -1.91,1.17 z"
     fill="#2f6799"
     clip-rule="evenodd"
     fill-rule="evenodd" /></svg>
