<?xml version="1.0" standalone="no"?>
<!DOCTYPE svg PUBLIC "-//W3C//DTD SVG 20010904//EN"
 "http://www.w3.org/TR/2001/REC-SVG-20010904/DTD/svg10.dtd">
<svg version="1.0" xmlns="http://www.w3.org/2000/svg"
 width="1467.000000pt" height="476.000000pt" viewBox="0 0 1467.000000 476.000000"
 preserveAspectRatio="xMidYMid meet">
<g transform="translate(0.000000,476.000000) scale(0.100000,-0.100000)"
fill="#000000" stroke="none">
<path d="M8460 2705 l0 -1365 350 0 350 0 2 998 3 999 255 -999 255 -998 320
2 320 3 255 996 255 996 3 -998 2 -999 350 0 350 0 0 1365 0 1365 -557 0 -558
0 -199 -783 c-110 -430 -204 -798 -209 -817 -11 -38 14 -128 -307 1123 l-123
477 -559 0 -558 0 0 -1365z" style="fill:#0B737D;fill-opacity:1;fill-rule:nonzero;stroke:none"/>
<path d="M11760 2707 l0 -1367 430 0 430 0 0 499 0 499 343 4 342 5 117 31
c214 57 342 126 450 240 74 79 118 151 153 251 72 206 73 518 1 715 -76 212
-245 366 -466 427 -162 44 -246 49 -1042 56 l-758 6 0 -1366z m1241 779 c88
-19 139 -46 183 -97 113 -132 74 -349 -76 -425 -78 -40 -166 -54 -335 -54
l-153 0 0 295 0 295 158 0 c96 0 183 -6 223 -14z" style="fill:#0B737D;fill-opacity:1;fill-rule:nonzero;stroke:none"/>
<path d="M1695 3925 c-214 -33 -436 -142 -597 -293 -269 -253 -411 -682 -378
-1144 25 -349 151 -651 359 -858 153 -152 313 -244 518 -297 132 -34 145 -36
308 -36 149 0 183 4 277 27 496 121 777 425 899 976 21 91 24 132 24 310 0
232 -19 366 -76 526 -147 419 -439 688 -842 776 -120 26 -365 33 -492 13z
m407 -310 c349 -71 578 -361 643 -816 19 -133 19 -229 0 -376 -26 -202 -74
-344 -158 -470 -129 -193 -297 -303 -526 -344 -115 -21 -173 -20 -321 8 -311
58 -546 291 -630 623 -80 321 -34 792 101 1016 119 196 346 340 590 374 76 10
208 4 301 -15z" style="fill:#0B737D;fill-opacity:1;fill-rule:nonzero;stroke:none"/>
<path d="M3995 3226 c-147 -29 -235 -77 -331 -180 l-64 -68 0 106 0 106 -145
0 -145 0 0 -1320 0 -1320 160 0 160 0 0 476 0 476 52 -47 c64 -57 151 -109
231 -137 87 -30 259 -30 372 1 137 37 304 148 393 262 119 153 198 391 209
634 12 259 -53 526 -174 707 -152 229 -452 356 -718 304z m210 -271 c97 -27
197 -109 253 -208 62 -111 84 -202 106 -457 6 -64 -11 -216 -34 -306 -45 -176
-148 -319 -271 -377 -67 -31 -184 -52 -245 -42 -69 10 -183 72 -241 132 -191
195 -235 689 -87 991 38 78 121 175 190 223 87 60 210 76 329 44z" style="fill:#0B737D;fill-opacity:1;fill-rule:nonzero;stroke:none"/>
<path d="M5681 3225 c-106 -16 -172 -36 -246 -73 -229 -114 -376 -316 -437
-598 -20 -97 -23 -134 -22 -334 0 -215 1 -229 27 -313 64 -210 183 -378 342
-485 149 -100 379 -147 600 -122 304 34 500 168 633 433 23 47 45 105 48 129
l6 44 -161 19 c-88 10 -162 17 -164 14 -1 -2 -20 -42 -42 -89 -43 -90 -139
-201 -203 -234 -48 -25 -178 -56 -231 -56 -179 0 -371 124 -453 291 -35 72
-78 236 -78 299 l0 30 672 0 671 0 -6 143 c-17 371 -127 612 -353 773 -162
116 -381 163 -603 129z m264 -280 c199 -52 308 -188 353 -442 l9 -53 -493 0
c-482 0 -494 0 -494 19 0 44 32 169 55 218 103 211 338 318 570 258z" style="fill:#0B737D;fill-opacity:1;fill-rule:nonzero;stroke:none"/>
<path d="M7535 3225 c-38 -8 -112 -35 -164 -61 -74 -37 -111 -63 -173 -124
l-78 -77 0 113 0 114 -145 0 -145 0 0 -925 0 -925 159 0 159 0 5 583 c4 501 7
592 21 657 35 155 99 247 213 307 113 60 205 75 315 52 128 -28 216 -97 259
-205 l24 -59 3 -667 3 -668 159 0 160 0 0 643 c0 682 -5 770 -46 897 -45 135
-114 215 -241 279 -137 68 -340 96 -488 66z" style="fill:#0B737D;fill-opacity:1;fill-rule:nonzero;stroke:none"/>
<path d="M13000 1641 c-53 -27 -82 -84 -77 -149 6 -89 66 -144 156 -144 94 0
155 63 155 159 0 59 -19 93 -74 131 -41 28 -111 29 -160 3z m148 -39 c47 -31
65 -101 39 -151 -18 -35 -29 -34 -54 4 -18 29 -19 36 -7 46 21 17 18 66 -5 79
-11 5 -40 10 -65 10 l-46 0 0 -90 c0 -73 3 -90 15 -90 10 0 15 11 15 35 0 46
23 46 52 0 13 -20 31 -35 43 -35 18 -1 17 -2 -5 -15 -76 -43 -170 19 -170 113
0 94 106 148 188 94z" style="fill:#0B737D;fill-opacity:1;fill-rule:nonzero;stroke:none"/>
<path d="M690 865 l0 -135 1200 0 1200 0 0 135 0 135 -1200 0 -1200 0 0 -135z" style="fill:#0B737D;fill-opacity:1;fill-rule:nonzero;stroke:none"/>
<path d="M3840 865 l0 -135 5120 0 5120 0 0 135 0 135 -5120 0 -5120 0 0 -135z" style="fill:#0B737D;fill-opacity:1;fill-rule:nonzero;stroke:none"/>
</g>
</svg>
