<?xml version="1.0" encoding="UTF-8" standalone="no"?>
<svg
   xmlns:dc="http://purl.org/dc/elements/1.1/"
   xmlns:cc="http://creativecommons.org/ns#"
   xmlns:rdf="http://www.w3.org/1999/02/22-rdf-syntax-ns#"
   xmlns:svg="http://www.w3.org/2000/svg"
   xmlns="http://www.w3.org/2000/svg"
   xmlns:sodipodi="http://sodipodi.sourceforge.net/DTD/sodipodi-0.dtd"
   xmlns:inkscape="http://www.inkscape.org/namespaces/inkscape"
   inkscape:version="1.0 (4035a4f, 2020-05-01)"
   sodipodi:docname="pyramid.svg"
   id="svg841"
   version="1.1"
   width="1730.949"
   viewBox="0.856 -4.955 469.63277 457.18474"
   height="1670.0458">
  <metadata
     id="metadata847">
    <rdf:RDF>
      <cc:Work
         rdf:about="">
        <dc:format>image/svg+xml</dc:format>
        <dc:type
           rdf:resource="http://purl.org/dc/dcmitype/StillImage" />
        <dc:title></dc:title>
      </cc:Work>
    </rdf:RDF>
  </metadata>
  <defs
     id="defs845" />
  <sodipodi:namedview
     inkscape:current-layer="g839"
     inkscape:window-maximized="0"
     inkscape:window-y="23"
     inkscape:window-x="312"
     inkscape:cy="616.899"
     inkscape:cx="1010.3117"
     inkscape:zoom="0.14939325"
     fit-margin-bottom="0"
     fit-margin-right="0"
     fit-margin-left="0"
     fit-margin-top="0"
     showgrid="false"
     id="namedview843"
     inkscape:window-height="907"
     inkscape:window-width="1474"
     inkscape:pageshadow="2"
     inkscape:pageopacity="0"
     guidetolerance="10"
     gridtolerance="10"
     objecttolerance="10"
     borderopacity="1"
     bordercolor="#666666"
     pagecolor="#ffffff" />
  <g
     transform="translate(536.14883,311.94145)"
     id="g839"
     fill-rule="evenodd"
     fill="none">
    <path
       id="path833"
       fill-rule="nonzero"
       fill="#be1e2d"
       d="m -263.72234,-109.9513 c 6.699,0.027 12.121,5.485 12.09,12.188001 -0.023,6.7 -5.48,12.122 -12.191,12.091 -6.693,-0.029 -12.113,-5.481 -12.092,-12.187 0.032,-6.704001 5.488,-12.119001 12.192,-12.092001 m 41.582,22.675001 c 6.928,4.714 8.73,14.15 4.007,21.082 -4.707,6.93 -14.148,8.728 -21.072,4.014 -6.928,-4.714 -8.727,-14.149 -4.018,-21.083 4.715,-6.928 14.154,-8.727 21.083,-4.013 m 27.243,52.567 c 3.89,9.726 -0.844,20.761 -10.578,24.648 -9.723,3.8849996 -20.76,-0.843 -24.646,-10.573 -3.89,-9.733 0.845,-20.766 10.575,-24.656 9.728,-3.884 20.769,0.852 24.65,10.581 m -8.505,73.511 c -2.771,12.8 -15.398,20.931 -28.196,18.159 -12.796,-2.778 -20.926,-15.396 -18.151,-28.19 2.774,-12.799 15.394,-20.9270004 28.193,-18.16 12.797,2.774 20.923,15.395 18.154,28.19 m -60.212,70.239999 c -11.813,11.329 -30.578,10.93 -41.9,-0.895 -11.325,-11.809999 -10.93,-30.572999 0.889,-41.894999 11.822,-11.334 30.584,-10.933 41.911,0.884 11.319,11.819 10.915,30.584 -0.9,41.905999 m -111.482,30.702 c -20.162,3.48 -39.33,-10.051 -42.8,-30.215 -3.477,-20.159999 10.043,-39.324999 30.214,-42.799999 20.16,-3.477 39.325,10.045 42.805,30.22 3.468,20.156999 -10.052,39.324999 -30.219,42.794999 m -136.994,-46.108999 c -23.328,-10.493 -33.73,-37.904 -23.239,-61.228 10.496,-23.3220004 37.91,-33.7300004 61.236,-23.2340004 23.325,10.4900004 33.725,37.9050004 23.236,61.2320004 -10.498,23.32 -37.91,33.723999 -61.233,23.23 m 145.798,-143.871 c -3.332,-5.818 -1.313,-13.236 4.505,-16.564 5.819,-3.33 13.24,-1.315 16.566,4.508 3.327,5.82 1.312,13.233 -4.504,16.564 -5.822,3.328 -13.236,1.31 -16.568,-4.508 m -1.162,-47.346 c 0.618,-8.360001 7.898,-14.634001 16.263,-14.020001 8.35,0.62 14.63,7.889 14.012,16.250001 -0.618,8.36 -7.894,14.633 -16.252,14.017 -8.36,-0.617 -14.634,-7.89 -14.023,-16.247 m 31.908,-49.878001 c 6.479,-8.233 18.406,-9.65 26.638,-3.168 8.233,6.477 9.65,18.41 3.171,26.638 -6.492,8.232 -18.41,9.647 -26.644,3.167 -8.226,-6.484 -9.648,-18.408 -3.165,-26.637 m 67.92,-29.39 c 12.47,-4.005 25.82,2.865 29.82,15.335 3.995,12.475 -2.866,25.826 -15.34,29.823 -12.463,3.994 -25.815,-2.872 -29.817,-15.342 -4.003,-12.468 2.87,-25.819 15.337,-29.816 m 90.925,17.019 c 15.725,4.574 24.76,21.023 20.178,36.74 -4.565,15.711 -21.013,24.750001 -36.733,20.178 -15.71,-4.574 -24.751,-21.018 -20.178,-36.738 4.575,-15.717 21.024,-24.751 36.733,-20.18 m 82.341997,81.195001 c 13.093,15.728 10.954,39.089 -4.77,52.178 -15.723997,13.092 -39.081997,10.964 -52.175997,-4.765 -13.095,-15.723 -10.956,-39.082 4.77,-52.181 15.724,-13.086 39.08,-10.952 52.175997,4.768 m 28.562,141.7 c 2.578,25.441 -15.963,48.166999 -41.407997,50.739999 -25.45,2.571 -48.17,-15.960999 -50.739,-41.409999 -2.573,-25.454 15.968,-48.168 41.417,-50.741 25.436997,-2.57 48.151997,15.962 50.729997,41.411 M -263.29234,8.7347006 c -3.37,5.7930004 -10.808,7.7580004 -16.604,4.3800004 -5.786,-3.3730004 -7.75,-10.8080004 -4.378,-16.5950004 3.379,-5.794 10.808,-7.7619996 16.597,-4.383 5.8,3.371 7.753,10.803 4.385,16.598 m -40.433,24.6700004 c -7.544,3.65 -16.618,0.483 -20.256,-7.062 -3.654,-7.549 -0.49,-16.6180004 7.06,-20.2610004 7.546,-3.64 16.62,-0.482 20.264,7.0650004 3.64,7.542 0.483,16.617 -7.068,20.258 m -59.145,-2.679 c -10.365,-1.5 -17.554,-11.122 -16.059,-21.4880004 1.502,-10.37 11.113,-17.565 21.481,-16.062 10.372,1.5 17.564,11.12 16.065,21.4800004 -1.498,10.373 -11.118,17.568 -21.487,16.07 m -59.411,-44.133 c -9.694,-8.798 -10.428,-23.793 -1.628,-33.492 8.8,-9.694 23.798,-10.427 33.497,-1.625 9.697,8.798 10.424,23.794 1.622,33.496 -8.8,9.6949996 -23.794,10.4209996 -33.491,1.621 m -30.726,-87.257001 c -3.898,-15.9 5.828,-31.945 21.728,-35.845 15.895,-3.895 31.95,5.826 35.845,21.723 3.9,15.899001 -5.828,31.946001 -21.726,35.847001 -15.897,3.9 -31.949,-5.83 -35.847,-21.725001 m 29.154,-111.903 c 7.068,-19.201 28.371,-29.03 47.571,-21.961 19.198,7.076 29.032,28.37 21.96,47.571 -7.072,19.203 -28.369,29.034 -47.572,21.961 -19.2,-7.073 -29.032,-28.37 -21.96,-47.57 m 108.435,-95.586 c 20.747,-14.955 49.693,-10.255 64.639,10.49 14.955,20.752 10.262,49.7 -10.494,64.65 -20.743,14.956 -49.686,10.258 -64.65,-10.496 -14.94,-20.747 -10.25,-49.69 10.505,-64.644" />
    <path
       id="path837"
       fill="#ffffff"
       d="m 630.844,535.324 c -13.36,0 -24.152,11.53 -24.152,27.082 0,15 10.793,26.53 24.152,26.53 13.352,0 24.152,-11.894 24.152,-26.53 0,-15.001 -10.8,-27.082 -24.152,-27.082 z m -324.724,0 c -13.356,0 -24.15,11.53 -24.15,27.082 0,15 10.794,26.53 24.15,26.53 13.355,0 24.154,-11.894 24.154,-26.53 0,-15.001 -10.797,-27.082 -24.154,-27.082 z m -256.778,0 c -13.356,0 -24.152,11.897 -24.152,26.535 0,15.001 10.796,27.077 24.152,27.077 13.355,0 24.15,-11.709 24.15,-27.077 0,-15.19 -10.795,-26.535 -24.15,-26.535" />
  </g>
</svg>
