<?xml version="1.0" encoding="UTF-8" standalone="no"?>
<svg
   xmlns:dc="http://purl.org/dc/elements/1.1/"
   xmlns:cc="http://creativecommons.org/ns#"
   xmlns:rdf="http://www.w3.org/1999/02/22-rdf-syntax-ns#"
   xmlns:svg="http://www.w3.org/2000/svg"
   xmlns="http://www.w3.org/2000/svg"
   xmlns:sodipodi="http://sodipodi.sourceforge.net/DTD/sodipodi-0.dtd"
   xmlns:inkscape="http://www.inkscape.org/namespaces/inkscape"
   inkscape:version="1.0 (4035a4f, 2020-05-01)"
   height="32"
   width="32"
   sodipodi:docname="close.svg"
   id="svg847"
   xml:space="preserve"
   viewBox="0 0 32 32"
   y="0px"
   x="0px"
   version="1.1"><metadata
     id="metadata853"><rdf:RDF><cc:Work
         rdf:about=""><dc:format>image/svg+xml</dc:format><dc:type
           rdf:resource="http://purl.org/dc/dcmitype/StillImage" /><dc:title></dc:title></cc:Work></rdf:RDF></metadata><defs
     id="defs851" /><sodipodi:namedview
     inkscape:current-layer="svg847"
     inkscape:window-maximized="0"
     inkscape:window-y="23"
     inkscape:window-x="0"
     inkscape:cy="43.455782"
     inkscape:cx="18.285714"
     inkscape:zoom="18.375"
     fit-margin-bottom="0"
     fit-margin-right="0"
     fit-margin-left="0"
     fit-margin-top="0"
     showgrid="false"
     id="namedview849"
     inkscape:window-height="840"
     inkscape:window-width="1410"
     inkscape:pageshadow="2"
     inkscape:pageopacity="0"
     guidetolerance="10"
     gridtolerance="10"
     objecttolerance="10"
     borderopacity="1"
     bordercolor="#666666"
     pagecolor="#ffffff" /><g
     id="g841"><path
       style="fill:#dbe2ef" 
       id="path833"
       d="M 16,32 C 7.178,32 0,24.822 0,16 0,7.178 7.178,0 16,0 24.822,0 32,7.178 32,16 32,24.822 24.822,32 16,32 Z M 16,2 C 8.28,2 2,8.28 2,16 2,23.72 8.28,30 16,30 23.72,30 30,23.72 30,16 30,8.28 23.72,2 16,2 Z" /><path
       id="path835"
       style="fill:#dbe2ef" 
       d="m 21,22 c -0.256,0 -0.512,-0.098 -0.707,-0.293 l -10,-10 c -0.391,-0.391 -0.391,-1.023 0,-1.414 0.391,-0.391 1.023,-0.391 1.414,0 l 10,10 c 0.391,0.391 0.391,1.023 0,1.414 C 21.512,21.902 21.256,22 21,22 Z" /><path
       id="path837"
       style="fill:#dbe2ef" 
       d="m 21,22 c -0.256,0 -0.512,-0.098 -0.707,-0.293 l -10,-10 c -0.391,-0.391 -0.391,-1.023 0,-1.414 0.391,-0.391 1.023,-0.391 1.414,0 l 10,10 c 0.391,0.391 0.391,1.023 0,1.414 C 21.512,21.902 21.256,22 21,22 Z" /><path
       id="path839"
       style="fill:#dbe2ef" 
       d="m 11,22 c -0.256,0 -0.512,-0.098 -0.707,-0.293 -0.391,-0.391 -0.391,-1.023 0,-1.414 l 10,-10 c 0.391,-0.391 1.023,-0.391 1.414,0 0.391,0.391 0.391,1.023 0,1.414 l -10,10 C 11.512,21.902 11.256,22 11,22 Z" /></g></svg>
