<?xml version="1.0" encoding="UTF-8" standalone="no"?>
<svg
   xmlns:dc="http://purl.org/dc/elements/1.1/"
   xmlns:cc="http://creativecommons.org/ns#"
   xmlns:rdf="http://www.w3.org/1999/02/22-rdf-syntax-ns#"
   xmlns:svg="http://www.w3.org/2000/svg"
   xmlns="http://www.w3.org/2000/svg"
   xmlns:sodipodi="http://sodipodi.sourceforge.net/DTD/sodipodi-0.dtd"
   xmlns:inkscape="http://www.inkscape.org/namespaces/inkscape"
   viewBox="0 0 30 30"
   x="0px"
   y="0px"
   version="1.1"
   id="svg843"
   sodipodi:docname="download.svg"
   width="30"
   height="30"
   inkscape:version="1.0 (4035a4f, 2020-05-01)">
  <metadata
     id="metadata849">
    <rdf:RDF>
      <cc:Work
         rdf:about="">
        <dc:format>image/svg+xml</dc:format>
        <dc:type
           rdf:resource="http://purl.org/dc/dcmitype/StillImage" />
        <dc:title>download</dc:title>
      </cc:Work>
    </rdf:RDF>
  </metadata>
  <defs
     id="defs847" />
  <sodipodi:namedview
     inkscape:document-rotation="0"
     pagecolor="#ffffff"
     bordercolor="#666666"
     borderopacity="1"
     objecttolerance="10"
     gridtolerance="10"
     guidetolerance="10"
     inkscape:pageopacity="0"
     inkscape:pageshadow="2"
     inkscape:window-width="1160"
     inkscape:window-height="851"
     id="namedview845"
     showgrid="false"
     fit-margin-top="0"
     fit-margin-left="0"
     fit-margin-right="0"
     fit-margin-bottom="0"
     inkscape:zoom="6.642316"
     inkscape:cx="33.85691"
     inkscape:cy="29.488032"
     inkscape:window-x="350"
     inkscape:window-y="213"
     inkscape:window-maximized="0"
     inkscape:current-layer="svg843" />
  <title
     id="title833">download</title>
  <g
     data-name="25-"
     id="g837"
     transform="translate(-1,-1)">
    <path
       d="m 31,23 v 7 a 1,1 0 0 1 -1,1 H 2 A 1,1 0 0 1 1,30 v -7 a 1,1 0 0 1 2,0 v 6 h 26 v -6 a 1,1 0 0 1 2,0 z m -15.707,1.207 a 0.9995,0.9995 0 0 0 1.414,0 l 10,-10 A 1,1 0 0 0 25.293,12.793 L 17,21.0859 V 2 A 1,1 0 0 0 15,2 V 21.0859 L 6.707,12.793 a 1,1 0 0 0 -1.414,1.414 z"
       id="path835"
       style="fill:#dbe2ef" />
  </g>
</svg>
