<?xml version="1.0" encoding="UTF-8" standalone="no"?>
<svg
   xmlns:dc="http://purl.org/dc/elements/1.1/"
   xmlns:cc="http://creativecommons.org/ns#"
   xmlns:rdf="http://www.w3.org/1999/02/22-rdf-syntax-ns#"
   xmlns:svg="http://www.w3.org/2000/svg"
   xmlns="http://www.w3.org/2000/svg"
   xmlns:sodipodi="http://sodipodi.sourceforge.net/DTD/sodipodi-0.dtd"
   xmlns:inkscape="http://www.inkscape.org/namespaces/inkscape"
   inkscape:version="1.0 (4035a4f, 2020-05-01)"
   sodipodi:docname="jira.svg"
   id="svg845"
   version="1.1"
   preserveAspectRatio="xMinYMin meet"
   viewBox="0 0 143.20904 189.14626"
   height="923.97949"
   width="699.26288">
  <metadata
     id="metadata851">
    <rdf:RDF>
      <cc:Work
         rdf:about="">
        <dc:format>image/svg+xml</dc:format>
        <dc:type
           rdf:resource="http://purl.org/dc/dcmitype/StillImage" />
        <dc:title></dc:title>
      </cc:Work>
    </rdf:RDF>
  </metadata>
  <defs
     id="defs849" />
  <sodipodi:namedview
     inkscape:current-layer="g843"
     inkscape:window-maximized="0"
     inkscape:window-y="23"
     inkscape:window-x="334"
     inkscape:cy="475.01715"
     inkscape:cx="983.38309"
     inkscape:zoom="0.13815723"
     fit-margin-bottom="0"
     fit-margin-right="0"
     fit-margin-left="0"
     fit-margin-top="0"
     showgrid="false"
     id="namedview847"
     inkscape:window-height="519"
     inkscape:window-width="1293"
     inkscape:pageshadow="2"
     inkscape:pageopacity="0"
     guidetolerance="10"
     gridtolerance="10"
     objecttolerance="10"
     borderopacity="1"
     bordercolor="#666666"
     pagecolor="#ffffff" />
  <g
     transform="translate(-0.00228332,-0.951)"
     id="g843"
     fill="#264970">
    <g
       id="g841">
      <path
         id="path837"
         d="m 30.847,12.281 c -6.856,0 -12.407,5.544 -12.407,12.417 0,6.856 5.551,12.42 12.407,12.42 6.86,0 12.406,-5.564 12.406,-12.42 0,-6.873 -5.545,-12.417 -12.406,-12.417 m 81.509,0 c -6.859,0 -12.403,5.544 -12.403,12.417 0,6.856 5.544,12.42 12.403,12.42 6.84,0 12.404,-5.564 12.404,-12.42 0,-6.873 -5.564,-12.408 -12.404,-12.417 M 71.601,0.951 c -6.855,0 -12.406,5.543 -12.406,12.418 0,6.856 5.55,12.42 12.406,12.42 6.86,0 12.405,-5.564 12.405,-12.42 C 84.006,6.494 78.46,0.951 71.6,0.951 m 70.086,45.931 a 3.9,3.9 0 0 0 -2.362,-0.797 c -0.467,0 -0.94,0.085 -1.386,0.257 -8.4,3.213 -16.932,5.652 -24.718,7.466 -1.588,0.37 -2.87,1.55 -3.402,2.966 -5.673,15.539 -20.159,30.336 -35.357,45.834 -0.61,0.579 -1.464,1.343 -2.855,1.343 -1.388,0 -2.234,-0.74 -2.855,-1.343 C 53.555,87.11 39.069,72.364 33.394,56.824 32.862,55.409 31.579,54.23 29.994,53.858 22.203,52.044 13.651,49.529 5.26,46.318 A 3.91,3.91 0 0 0 3.87,46.061 c -0.841,0 -1.656,0.264 -2.344,0.79 a 3.881,3.881 0 0 0 -1.508,3.432 c 1.287,12.922 6.393,25.555 15.608,38.792 8.662,12.446 19.96,23.966 30.883,35.106 20.126,20.53 39.139,39.918 40.807,62.401 a 3.889,3.889 0 0 0 3.878,3.6 h 23.646 a 3.892,3.892 0 0 0 3.884,-4.08 c -0.744,-15.032 -6.401,-30.086 -17.294,-46.016 -2.283,-3.34 -4.728,-6.59 -7.285,-9.77 -1.039,-1.295 -0.604,-2.904 0.19,-3.716 0.786,-0.804 1.575,-1.606 2.37,-2.419 10.923,-11.14 22.22,-22.66 30.883,-35.106 9.214,-13.239 14.318,-25.797 15.606,-38.717 0.128,-1.298 -0.461,-2.676 -1.508,-3.476 M 46.232,141.67 c -0.56,-0.585 -1.381,-1.182 -2.761,-1.182 -1.765,0 -2.812,1.22 -3.208,1.824 -9.946,15.135 -15.083,29.42 -15.793,43.775 a 3.938,3.938 0 0 0 1.07,2.883 3.937,3.937 0 0 0 2.83,1.212 h 23.605 a 3.92,3.92 0 0 0 3.891,-3.614 c 0.514,-6.919 2.668,-13.854 6.59,-21.142 1.36,-2.521 0.303,-4.89 -0.479,-5.902 -3.89,-5.06 -8.656,-10.457 -15.745,-17.854" />
      <path
         id="path839"
         d="m 71.628,58.466 c 7.41,0 11.708,-0.445 13.218,-0.445 1.83,0 3.577,1.499 3.577,3.597 0,0.612 -0.145,1.05 -0.288,1.437 -0.983,2.627 -5.462,12.08 -13.801,20.189 -0.936,0.91 -1.996,1.08 -2.726,1.08 H 71.6 c -0.729,0 -1.788,-0.17 -2.723,-1.08 -8.34,-8.109 -12.82,-17.562 -13.8,-20.19 -0.145,-0.386 -0.29,-0.824 -0.29,-1.436 0,-2.098 1.75,-3.597 3.58,-3.597 1.51,0 5.805,0.445 13.213,0.445 h 0.049" />
    </g>
  </g>
</svg>
