<?xml version="1.0" encoding="UTF-8" standalone="no"?>
<svg
   xmlns:dc="http://purl.org/dc/elements/1.1/"
   xmlns:cc="http://creativecommons.org/ns#"
   xmlns:rdf="http://www.w3.org/1999/02/22-rdf-syntax-ns#"
   xmlns:svg="http://www.w3.org/2000/svg"
   xmlns="http://www.w3.org/2000/svg"
   xmlns:sodipodi="http://sodipodi.sourceforge.net/DTD/sodipodi-0.dtd"
   xmlns:inkscape="http://www.inkscape.org/namespaces/inkscape"
   inkscape:version="1.0 (4035a4f, 2020-05-01)"
   height="78"
   width="78"
   sodipodi:docname="menu.svg"
   id="svg847"
   xml:space="preserve"
   viewBox="0 0 78 78"
   y="0px"
   x="0px"
   version="1.1"><metadata
     id="metadata853"><rdf:RDF><cc:Work
         rdf:about=""><dc:format>image/svg+xml</dc:format><dc:type
           rdf:resource="http://purl.org/dc/dcmitype/StillImage" /><dc:title></dc:title></cc:Work></rdf:RDF></metadata><defs
     id="defs851" /><sodipodi:namedview
     inkscape:current-layer="svg847"
     inkscape:window-maximized="0"
     inkscape:window-y="23"
     inkscape:window-x="0"
     inkscape:cy="29.221088"
     inkscape:cx="34.578231"
     inkscape:zoom="5.88"
     fit-margin-bottom="0"
     fit-margin-right="0"
     fit-margin-left="0"
     fit-margin-top="0"
     showgrid="false"
     id="namedview849"
     inkscape:window-height="763"
     inkscape:window-width="1254"
     inkscape:pageshadow="2"
     inkscape:pageopacity="0"
     guidetolerance="10"
     gridtolerance="10"
     objecttolerance="10"
     borderopacity="1"
     bordercolor="#666666"
     pagecolor="#ffffff" /><g
     transform="translate(-11,-11)"
     id="g841"><path
       fill="#dbe2ef"
       id="path833"
       d="M 66,48 H 34 c -1.1,0 -2,0.9 -2,2 0,1.1 0.9,2 2,2 h 32 c 1.1,0 2,-0.9 2,-2 0,-1.1 -0.9,-2 -2,-2 z" /><path
       fill="#dbe2ef"
       id="path835"
       d="M 66,34 H 34 c -1.1,0 -2,0.9 -2,2 0,1.1 0.9,2 2,2 h 32 c 1.1,0 2,-0.9 2,-2 0,-1.1 -0.9,-2 -2,-2 z" /><path
       fill="#dbe2ef"
       id="path837"
       d="M 66,62 H 34 c -1.1,0 -2,0.9 -2,2 0,1.1 0.9,2 2,2 h 32 c 1.1,0 2,-0.9 2,-2 0,-1.1 -0.9,-2 -2,-2 z" /><path
       fill="#dbe2ef"
       id="path839"
       d="M 50,11 C 28.5,11 11,28.5 11,50 11,71.5 28.5,89 50,89 71.5,89 89,71.5 89,50 89,28.5 71.5,11 50,11 Z m 0,74 C 30.7,85 15,69.3 15,50 15,30.7 30.7,15 50,15 69.3,15 85,30.7 85,50 85,69.3 69.3,85 50,85 Z" /></g></svg>
